PathFileType	4	(X/Y/Z)	Patient4_TMGait_0pt5_01_right_03.trc.trc
DataRate	CameraRate	NumFrames	NumMarkers	Units	OrigDataRate	OrigDataStartFrame	OrigNumFrames
73.684210526316	73.684210526316	5	33	mm	73.684210526316	1	       141
Frame#	Time	L.ASIS			Sacral			L.Shoulder			Chest			R.Shoulder			Neck			R.ASIS			R.Thigh.Superior			R.Thigh.Lateral			R.Thigh.Inferior			R.Patella			L.Thigh.Superior			L.Thigh.Lateral			L.Thigh.Inferior			L.Patella			L.Shank.Superior			L.Shank.Lateral			L.Shank.Inferior			R.Shank.Superior			R.Shank.Lateral			R.Shank.Inferior			R.Heel			R.Midfoot.Superior			R.Midfoot.Lateral			R.Toe			L.Heel			L.Midfoot.Lateral			L.Midfoot.Superior			L.Toe			L.Elbow			L.Wrist			R.Elbow			R.Wrist			
		X1	Y1	Z1	X2	Y2	Z2	X3	Y3	Z3	X4	Y4	Z4	X5	Y5	Z5	X6	Y6	Z6	X7	Y7	Z7	X8	Y8	Z8	X9	Y9	Z9	X10	Y10	Z10	X11	Y11	Z11	X12	Y12	Z12	X13	Y13	Z13	X14	Y14	Z14	X15	Y15	Z15	X16	Y16	Z16	X17	Y17	Z17	X18	Y18	Z18	X19	Y19	Z19	X20	Y20	Z20	X21	Y21	Z21	X22	Y22	Z22	X23	Y23	Z23	X24	Y24	Z24	X25	Y25	Z25	X26	Y26	Z26	X27	Y27	Z27	X28	Y28	Z28	X29	Y29	Z29	X30	Y30	Z30	X31	Y31	Z31	X32	Y32	Z32	X33	Y33	Z33	

1	3.210000000000	781.667416208629	962.531646989773	291.524143111873	564.253015813234	1008.508369176502	449.103232711306	739.850395940559	1437.907564031348	269.283091704456	840.854346605098	1367.080141623214	431.207867422866	755.042447875159	1440.156996337455	605.186047150070	739.202313183104	1498.236649740612	420.067751815129	791.333808294581	942.990369798235	565.818168090377	862.795614014119	760.359151371653	537.998044124039	809.460520369251	643.319880390360	607.331106207625	896.967848193227	596.479557746604	529.463817255600	904.269509583671	481.143377912172	551.077460475947	832.366688786267	752.509055396823	324.904401840641	745.279134832766	635.518838291558	271.560287884544	827.499688746066	559.122893661352	338.820401018412	827.357616165351	488.200482450805	351.807715735744	799.827546939048	416.573936972975	344.510895207033	712.173622583624	302.442004109048	292.549510890706	756.339381079799	192.500887190914	368.832234817641	821.790393809956	413.430510901860	557.934524885356	696.804177490341	385.075211556358	616.972403981751	673.714218591101	277.489811336765	569.279558145783	467.692724186477	235.972272630157	537.425141194796	627.854715108986	160.843480876656	583.469123650513	518.835026466098	174.109067570641	614.941259328693	680.740453803772	45.281259094951	618.711681440561	622.793327324354	38.153257997623	407.547775092094	699.748701363923	35.325007161530	329.375769791055	782.400100561683	95.575275032188	358.944851456990	911.484958827085	42.455665540893	335.477435972925	726.602963224329	1091.607053006725	127.529782691038	895.606047893537	890.886958108873	140.797841883611	707.398482720194	1093.177124469351	716.931092823306	777.309362561645	840.715626731062	708.001669047717	
2	3.223571428571	781.363215733710	962.917005670376	291.637563454378	563.168349068850	1009.116894145469	447.621006658329	741.944337414667	1438.550335193416	269.053752013034	840.779203255280	1367.257840886889	432.039249915124	753.393404720910	1440.420997147974	605.214210974597	739.771967469774	1498.782314683797	419.883226106273	789.305333623360	944.241900540372	566.075216763751	863.603266991563	764.420773178085	537.875850186520	813.231333784710	646.709343607448	607.635886900721	901.187276882315	601.422269691660	529.442546861692	911.423362155204	486.693581751118	551.278544022378	829.493478585041	751.639800807184	325.230190652011	741.278661023306	635.612690026607	271.297062816370	822.106452751872	558.381706906492	338.985750895249	821.118346202233	487.669858431080	352.034263280504	793.575195669252	416.356966933413	344.536350807451	705.715665066648	302.430798373694	292.448698177640	749.450039686833	192.441980292359	368.860190061212	831.019986665908	416.898085460683	558.416554487562	707.365036928620	384.459924052491	617.755494762716	687.587925301996	276.192338876510	570.158388911449	483.289309209583	227.705034169292	539.088046892022	645.971799778174	158.256152614565	584.416476319555	536.814314645078	167.629555591106	616.270458828893	702.900588354561	44.572586592315	619.279003394220	615.467897039359	38.157268104471	407.520362004558	692.488733758576	35.305227308669	329.365580579192	775.171355884020	95.565235388412	358.949822313978	904.238116444033	42.369293102009	335.479975420588	732.362385192048	1093.125610523732	125.725396955338	908.453028727012	899.749212316300	140.313765141551	695.815418360696	1095.608587494232	716.298287407293	752.381332238965	841.020743479057	711.525931065458	
3	3.237142857143	781.060717044284	963.274800473764	291.787186227620	562.081991144423	1009.707577928606	446.163671194382	744.016647961678	1439.162614518149	268.850019431276	840.691464551281	1367.417896340867	432.895205511667	751.713884848638	1440.669581866557	605.247446479620	740.320712821176	1499.303130304971	419.718908916047	787.284722479342	945.458640242155	566.349027672855	864.331534636551	768.401002079564	537.773703388880	816.857330845997	650.032848787248	607.967944301073	905.221369976657	606.246296923443	529.454555484030	918.327462652676	492.184436740320	551.545374865522	826.648892211414	750.770788297971	325.600524484715	737.327224868020	635.695790423485	271.052936339106	816.765000249934	557.643031587474	339.174021267962	814.921921099472	487.132321480975	352.281035016307	787.375578524277	416.129713567201	344.577438054766	699.310490313957	302.413671189091	292.358875520716	742.602629619262	192.374745652620	368.896715447664	840.104336417856	420.275072381185	558.967576016832	717.871209530497	383.606256024640	618.622709921551	701.572695836459	274.666816244880	571.126271305193	499.119309527520	218.960991626331	540.842128722045	664.344726272748	155.434515285255	585.473304578059	555.075954608317	160.787311145059	617.715602367804	725.441387270394	43.757187981903	619.989481286538	608.184975569036	38.157102048851	407.497302160382	685.266526875534	35.286249242631	329.357609837722	767.978874605284	95.553543782617	358.960120623037	897.029930926918	42.285043238190	335.485211923721	738.071568083260	1094.606202298364	123.990406298463	921.181786060805	908.640978560777	139.892811006362	684.285672664729	1098.064520579238	715.655423485279	727.740943591218	841.528859030532	714.901149241409	
4	3.250714285714	780.768383732795	963.576717767857	292.009419554078	561.003713119758	1010.260327662464	444.764003100635	746.033549335415	1439.712508735651	268.705098786172	840.581767923750	1367.543213033905	433.797253801228	749.992757785449	1440.887711165468	605.296824472560	740.828695856501	1499.772017984102	419.599969630242	785.292953499912	946.597197283927	566.662066886144	864.883362297620	772.163719958959	537.732781488499	820.129725789338	653.182171855372	608.369896921266	908.828399209408	610.776771348820	529.553625377012	924.670408626928	497.505542264008	551.937865017205	823.869250913406	749.900863837884	326.054478076153	733.481475829659	635.757821054882	270.846390542558	811.534169642867	556.909106867485	339.405266166607	808.828134440801	486.586607393331	352.561258514951	781.290607100228	415.883559174669	344.647903174273	693.020428121693	302.385567854789	292.289517419217	735.849258060272	192.290562691193	368.950730391975	848.831313197403	423.464585624011	559.645592613378	728.237584886308	382.321672870629	619.649033786410	715.715310779812	272.774174994634	572.248895398207	515.420658172031	209.427619272332	542.749499763488	683.152844673808	152.280881152337	586.708852510010	573.874255834364	153.378573859175	619.352233231874	748.614229797766	42.886011516490	620.923737627308	600.999129768998	38.150905729008	407.480957194283	678.133064222828	35.269279045586	329.353414861547	760.872843899147	95.539537788491	358.979434516853	889.911370949286	42.204344943966	335.495719137761	743.663910919594	1096.004338325238	122.410654354526	933.616591516733	917.547915668986	139.606665075144	672.930438351374	1100.555381061475	714.993139371845	703.797068230482	842.401116027165	717.978634644711	
5	3.264285714286	780.490947515383	963.797675509848	292.334247311455	559.938712090080	1010.760338107883	443.446344668512	747.968117142722	1440.174255501160	268.648663570217	840.442127009337	1367.619857070466	434.766163615737	748.221722909271	1441.063857867306	605.375988251144	741.280958450461	1500.165931374386	419.549896408228	783.346256580276	947.620963397220	567.037441557756	865.169317267530	775.580414145192	537.797447955739	822.850901510614	656.054291204745	608.884000139302	911.788866836204	614.852488284690	529.795382612097	930.182719408402	502.558972041194	552.507340650672	821.178744060926	749.024594101623	326.625477151237	729.778793498429	635.790033227065	270.691684364524	806.447305596846	556.177736943545	339.697877662333	802.869993809496	486.029818788770	352.887412418794	775.353118155225	415.609319692408	344.760068522877	686.877320633514	302.341713373062	292.248258083918	729.211077845460	192.181910897122	369.030304039182	857.023910200981	426.390957229850	560.500630154052	738.421378559760	380.450646983482	620.900098939005	730.092199636105	270.421639632986	573.580948261689	532.480840874080	198.858413320622	544.858837128674	702.606509321471	148.754984112042	588.176029163627	593.504246395230	145.262479268618	621.238277184292	772.686512000654	42.069677473756	622.140407537219	593.931610503087	38.137669740718	407.471988428366	671.106701620197	35.254823103955	329.354157143093	753.871155539327	95.522375271319	359.011017450581	882.900842176410	42.128227465996	335.513607737058	749.101169547455	1097.283568331458	121.060643729280	945.635471297221	926.477071973010	139.519617164649	661.834071365873	1103.096312393532	714.301313436604	680.852011394188	843.758225542801	720.645670744748	
